<svg xmlns="http://www.w3.org/2000/svg" width="64" height="64" enable-background="new 0 0 64 64" viewBox="0 0 64 64"><path fill="#010101" d="M63.01,62.061h-3.229V34.119c0-0.535-0.434-0.97-0.97-0.97s-0.97,0.435-0.97,0.97v27.941h-5.329v-19.22
		c0-0.535-0.434-0.97-0.97-0.97c-0.535,0-0.97,0.435-0.97,0.97v19.22h-5.329V48.655c0-0.536-0.434-0.97-0.97-0.97
		c-0.535,0-0.97,0.434-0.97,0.97v13.405h-5.328v-19.22c0-0.535-0.435-0.97-0.97-0.97c-0.536,0-0.97,0.435-0.97,0.97v19.22h-5.329
		v-19.22c0-0.535-0.435-0.97-0.97-0.97c-0.536,0-0.97,0.435-0.97,0.97v19.22h-5.329v-18.25c0-0.536-0.434-0.971-0.97-0.971
		s-0.97,0.435-0.97,0.971v18.25h-5.329V49.625c0-0.536-0.434-0.971-0.97-0.971s-0.97,0.435-0.97,0.971v12.436H8.904v-6.621
		c0-0.536-0.434-0.971-0.97-0.971s-0.97,0.435-0.97,0.971v6.621H1.96V1.01c0-0.535-0.435-0.971-0.97-0.971
		c-0.536,0-0.97,0.436-0.97,0.971v62.02C0.021,63.565,0.455,64,0.99,64h62.02c0.536,0,0.97-0.435,0.97-0.971
		C63.979,62.494,63.545,62.061,63.01,62.061z"/><path fill="#010101" d="M29.258 24.283c-.352-.277-.847-.281-1.199-.004l-17.733 13.84c-.422.33-.497.939-.167 1.361.191.245.476.373.765.373.209 0 .419-.066.596-.205l17.131-13.371L43.672 38.19c.387.306.942.274 1.29-.075l16.36-16.414-.237 1.959c-.064.532.314 1.016.846 1.079.04.005.079.007.118.007.483 0 .901-.361.961-.853l.574-4.743c.003-.025-.007-.051-.006-.076.001-.016.01-.027.01-.043 0-.039-.019-.073-.023-.111-.009-.076-.019-.15-.045-.223-.021-.054-.051-.1-.081-.148-.027-.047-.041-.1-.076-.141-.012-.015-.03-.02-.042-.033-.042-.045-.093-.075-.142-.111-.054-.039-.102-.082-.162-.108-.064-.03-.136-.038-.207-.054-.048-.01-.092-.034-.143-.037l-.053-.002c0 0-.001 0-.001 0s-.001 0-.001 0l-4.718-.225c-.522-.014-.989.388-1.015.923s.388.989.923 1.015l2.578.123L44.199 36.133 29.258 24.283zM5.997 5.814h3.876c.536 0 .97-.434.97-.969V.969C10.843.434 10.409 0 9.873 0H5.997c-.536 0-.97.434-.97.969v3.877C5.027 5.381 5.461 5.814 5.997 5.814zM6.966 1.939h1.937v1.936H6.966V1.939zM16.495 3.877H32c.536 0 .97-.434.97-.97s-.434-.97-.97-.97H16.495c-.536 0-.97.434-.97.97S15.959 3.877 16.495 3.877zM5.997 14.012h3.876c.536 0 .97-.434.97-.97V9.166c0-.535-.434-.971-.97-.971H5.997c-.536 0-.97.436-.97.971v3.876C5.027 13.578 5.461 14.012 5.997 14.012zM6.966 10.135h1.937v1.938H6.966V10.135zM16.495 12.073H32c.536 0 .97-.435.97-.97s-.434-.97-.97-.97H16.495c-.536 0-.97.435-.97.97S15.959 12.073 16.495 12.073zM5.997 22.209h3.876c.536 0 .97-.436.97-.971v-3.875c0-.536-.434-.971-.97-.971H5.997c-.536 0-.97.435-.97.971v3.875C5.027 21.773 5.461 22.209 5.997 22.209zM6.966 18.332h1.937v1.938H6.966V18.332zM16.495 20.271H32c.536 0 .97-.435.97-.97s-.434-.97-.97-.97H16.495c-.536 0-.97.435-.97.97S15.959 20.271 16.495 20.271z"/></svg>