<svg xmlns="http://www.w3.org/2000/svg" xmlns:xlink="http://www.w3.org/1999/xlink" width="650" zoomAndPan="magnify" viewBox="0 0 487.5 149.999998" height="200" preserveAspectRatio="xMidYMid meet" version="1.0"><defs><g/><clipPath id="id1"><path d="M 46 56.710938 L 84.964844 56.710938 L 84.964844 80 L 46 80 Z M 46 56.710938 " clip-rule="nonzero"/></clipPath><clipPath id="id2"><path d="M 47 57 L 77 57 L 77 85.945312 L 47 85.945312 Z M 47 57 " clip-rule="nonzero"/></clipPath></defs><path fill="rgb(13.328552%, 20.779419%, 35.688782%)" d="M 93.164062 106.242188 L 37.554688 106.242188 C 33.65625 106.242188 30.484375 103.054688 30.484375 99.148438 L 30.484375 43.585938 C 30.484375 39.675781 33.65625 36.492188 37.554688 36.492188 L 93.164062 36.492188 C 97.058594 36.492188 100.234375 39.675781 100.234375 43.585938 L 100.234375 99.148438 C 100.234375 103.054688 97.058594 106.242188 93.164062 106.242188 " fill-opacity="1" fill-rule="nonzero"/><g clip-path="url(#id1)"><path fill="rgb(100%, 100%, 100%)" d="M 84.109375 57.015625 L 77.496094 64.101562 C 77.242188 64.375 77.386719 64.828125 77.753906 64.898438 L 79 65.144531 C 79.300781 65.203125 79.46875 65.53125 79.34375 65.8125 C 77.257812 70.445312 73.535156 74.039062 68.8125 75.964844 C 63.9375 77.953125 58.578125 77.925781 53.722656 75.882812 C 50.734375 74.625 48.15625 72.695312 46.15625 70.261719 C 46.089844 70.183594 45.96875 70.277344 46.027344 70.359375 C 48.191406 73.4375 51.222656 75.964844 54.949219 77.53125 C 65.324219 81.898438 77.246094 77.191406 81.886719 67.015625 C 82.015625 66.738281 82.363281 66.644531 82.609375 66.828125 L 83.761719 67.679688 C 84.070312 67.90625 84.507812 67.699219 84.523438 67.3125 L 84.9375 57.363281 C 84.957031 56.917969 84.410156 56.691406 84.109375 57.015625 Z M 84.109375 57.015625 " fill-opacity="1" fill-rule="nonzero"/></g><g clip-path="url(#id2)"><path fill="rgb(100%, 100%, 100%)" d="M 47.734375 70.59375 C 47.691406 70.53125 47.644531 70.46875 47.605469 70.402344 L 47.605469 68.351562 C 47.605469 67.5 48.277344 66.800781 49.128906 66.769531 C 50.679688 66.710938 52.21875 66.566406 53.738281 66.339844 L 53.738281 74.523438 C 53.734375 74.519531 53.726562 74.519531 53.722656 74.515625 C 51.46875 73.566406 49.449219 72.234375 47.734375 70.59375 Z M 61.199219 76.070312 L 61.199219 64.488281 C 59.207031 65.1875 57.160156 65.734375 55.066406 66.117188 L 55.066406 75.027344 C 57.066406 75.703125 59.128906 76.050781 61.199219 76.070312 Z M 68.664062 74.660156 L 68.664062 60.988281 C 66.703125 62.164062 64.652344 63.171875 62.53125 64 L 62.53125 76.035156 C 64.609375 75.910156 66.675781 75.453125 68.664062 74.660156 Z M 76.125 64.269531 L 76.125 58.792969 C 76.125 57.460938 74.574219 56.714844 73.542969 57.558594 C 72.398438 58.492188 71.214844 59.359375 69.992188 60.15625 L 69.992188 74.070312 C 70.015625 74.058594 70.039062 74.046875 70.0625 74.035156 C 73.78125 72.214844 76.125 68.414062 76.125 64.269531 Z M 54.949219 78.953125 C 52.050781 77.734375 49.578125 75.929688 47.601562 73.742188 L 47.601562 84.351562 C 47.601562 85.226562 48.3125 85.9375 49.1875 85.9375 L 74.539062 85.9375 C 75.414062 85.9375 76.125 85.226562 76.125 84.351562 L 76.125 78.953125 C 76.125 77.71875 74.777344 76.957031 73.722656 77.59375 C 68.238281 80.898438 61.304688 81.625 54.949219 78.953125 Z M 54.949219 78.953125 " fill-opacity="1" fill-rule="nonzero"/></g><g fill="rgb(13.328552%, 20.779419%, 35.688782%)" fill-opacity="1"><g transform="translate(114.423516, 99.724223)"><g><path d="M 3.15625 0 L 3.15625 -3.15625 C 5.3125 -3.207031 7.039062 -3.367188 8.34375 -3.640625 C 9.644531 -3.921875 10.640625 -4.394531 11.328125 -5.0625 C 12.023438 -5.726562 12.5 -6.671875 12.75 -7.890625 C 13 -9.109375 13.125 -10.6875 13.125 -12.625 L 13.125 -51.3125 C 13.125 -53.25 13.023438 -54.8125 12.828125 -56 C 12.628906 -57.195312 12.238281 -58.140625 11.65625 -58.828125 C 11.082031 -59.515625 10.238281 -59.984375 9.125 -60.234375 C 8.019531 -60.484375 6.582031 -60.664062 4.8125 -60.78125 L 4.8125 -63.9375 L 29.640625 -63.9375 C 37.109375 -63.9375 42.921875 -62.609375 47.078125 -59.953125 C 51.234375 -57.296875 53.3125 -53.554688 53.3125 -48.734375 C 53.3125 -45.085938 52.160156 -42.097656 49.859375 -39.765625 C 47.566406 -37.441406 43.925781 -35.535156 38.9375 -34.046875 L 38.9375 -33.703125 C 40.65625 -33.546875 42.148438 -33.351562 43.421875 -33.125 C 44.691406 -32.90625 45.828125 -32.644531 46.828125 -32.34375 C 47.828125 -32.039062 48.753906 -31.664062 49.609375 -31.21875 C 50.460938 -30.78125 51.304688 -30.28125 52.140625 -29.71875 C 57.066406 -26.238281 59.53125 -21.867188 59.53125 -16.609375 C 59.53125 -13.671875 58.710938 -10.941406 57.078125 -8.421875 C 55.453125 -5.910156 53.171875 -3.929688 50.234375 -2.484375 C 49.296875 -1.992188 48.328125 -1.59375 47.328125 -1.28125 C 46.328125 -0.976562 45.160156 -0.726562 43.828125 -0.53125 C 42.503906 -0.34375 40.96875 -0.207031 39.21875 -0.125 C 37.476562 -0.0390625 35.421875 0 33.046875 0 Z M 33.296875 -3.578125 C 43.316406 -3.578125 48.328125 -7.863281 48.328125 -16.4375 C 48.328125 -22.695312 45.753906 -27.070312 40.609375 -29.5625 C 39.722656 -29.945312 38.863281 -30.273438 38.03125 -30.546875 C 37.195312 -30.828125 36.226562 -31.035156 35.125 -31.171875 C 34.019531 -31.316406 32.703125 -31.414062 31.171875 -31.46875 C 29.648438 -31.519531 27.785156 -31.546875 25.578125 -31.546875 L 21.84375 -31.546875 L 21.84375 -13.03125 C 21.84375 -9.65625 22.726562 -7.234375 24.5 -5.765625 C 26.269531 -4.304688 29.203125 -3.578125 33.296875 -3.578125 Z M 26.484375 -35.703125 C 28.203125 -35.703125 29.640625 -35.726562 30.796875 -35.78125 C 31.960938 -35.84375 32.960938 -35.941406 33.796875 -36.078125 C 34.628906 -36.210938 35.363281 -36.40625 36 -36.65625 C 36.632812 -36.90625 37.28125 -37.253906 37.9375 -37.703125 C 39.71875 -38.804688 40.976562 -40.128906 41.71875 -41.671875 C 42.46875 -43.222656 42.84375 -45.25 42.84375 -47.75 C 42.84375 -52.113281 41.773438 -55.25 39.640625 -57.15625 C 37.515625 -59.070312 34.179688 -60.03125 29.640625 -60.03125 L 23.25 -60.03125 C 22.3125 -60.03125 21.84375 -59.5625 21.84375 -58.625 L 21.84375 -35.703125 Z M 26.484375 -35.703125 "/></g></g></g><g fill="rgb(13.328552%, 20.779419%, 35.688782%)" fill-opacity="1"><g transform="translate(179.683292, 99.724223)"><g><path d="M 18.9375 -13.203125 C 18.9375 -11.046875 19.03125 -9.316406 19.21875 -8.015625 C 19.414062 -6.710938 19.789062 -5.6875 20.34375 -4.9375 C 20.894531 -4.1875 21.664062 -3.671875 22.65625 -3.390625 C 23.65625 -3.117188 24.988281 -2.957031 26.65625 -2.90625 L 26.65625 0 L 2.828125 0 L 2.828125 -2.90625 C 4.484375 -2.957031 5.835938 -3.132812 6.890625 -3.4375 C 7.941406 -3.75 8.757812 -4.25 9.34375 -4.9375 C 9.925781 -5.632812 10.3125 -6.601562 10.5 -7.84375 C 10.695312 -9.09375 10.796875 -10.6875 10.796875 -12.625 L 10.796875 -23.25 C 10.796875 -26.457031 10.753906 -29.097656 10.671875 -31.171875 C 10.585938 -33.253906 10.4375 -34.679688 10.21875 -35.453125 C 9.9375 -36.722656 9.296875 -37.59375 8.296875 -38.0625 C 7.304688 -38.539062 5.425781 -38.78125 2.65625 -38.78125 L 2.65625 -41.6875 L 18.9375 -44.84375 Z M 9.375 -61.6875 C 9.375 -63.125 9.875 -64.34375 10.875 -65.34375 C 11.875 -66.34375 13.09375 -66.84375 14.53125 -66.84375 C 15.96875 -66.84375 17.179688 -66.34375 18.171875 -65.34375 C 19.171875 -64.34375 19.671875 -63.125 19.671875 -61.6875 C 19.671875 -60.25 19.171875 -59.03125 18.171875 -58.03125 C 17.179688 -57.039062 15.96875 -56.546875 14.53125 -56.546875 C 13.09375 -56.546875 11.875 -57.039062 10.875 -58.03125 C 9.875 -59.03125 9.375 -60.25 9.375 -61.6875 Z M 9.375 -61.6875 "/></g></g></g><g fill="rgb(13.328552%, 20.779419%, 35.688782%)" fill-opacity="1"><g transform="translate(209.573387, 99.724223)"><g><path d="M 17.359375 -12.953125 C 17.359375 -10.847656 17.441406 -9.160156 17.609375 -7.890625 C 17.773438 -6.617188 18.117188 -5.617188 18.640625 -4.890625 C 19.160156 -4.171875 19.90625 -3.671875 20.875 -3.390625 C 21.84375 -3.117188 23.132812 -2.957031 24.75 -2.90625 L 24.75 0 L 1.828125 0 L 1.828125 -2.90625 C 3.484375 -2.957031 4.8125 -3.132812 5.8125 -3.4375 C 6.8125 -3.75 7.597656 -4.234375 8.171875 -4.890625 C 8.753906 -5.554688 9.140625 -6.484375 9.328125 -7.671875 C 9.523438 -8.867188 9.625 -10.4375 9.625 -12.375 L 9.625 -48.15625 C 9.625 -51.144531 9.582031 -53.648438 9.5 -55.671875 C 9.414062 -57.691406 9.296875 -59.0625 9.140625 -59.78125 C 8.859375 -61.050781 8.203125 -61.90625 7.171875 -62.34375 C 6.148438 -62.789062 4.3125 -63.015625 1.65625 -63.015625 L 1.65625 -65.84375 L 17.359375 -68.921875 Z M 17.359375 -12.953125 "/></g></g></g><g fill="rgb(13.328552%, 20.779419%, 35.688782%)" fill-opacity="1"><g transform="translate(238.135035, 99.724223)"><g><path d="M 28.984375 -24.578125 C 25.828125 -23.359375 23.15625 -22.164062 20.96875 -21 C 18.78125 -19.84375 17.019531 -18.679688 15.6875 -17.515625 C 14.363281 -16.359375 13.410156 -15.195312 12.828125 -14.03125 C 12.242188 -12.863281 11.953125 -11.675781 11.953125 -10.46875 C 11.953125 -8.632812 12.5625 -7.132812 13.78125 -5.96875 C 15 -4.8125 16.601562 -4.234375 18.59375 -4.234375 C 20.03125 -4.234375 21.375 -4.59375 22.625 -5.3125 C 23.875 -6.03125 24.96875 -7.007812 25.90625 -8.25 C 26.84375 -9.5 27.585938 -10.96875 28.140625 -12.65625 C 28.703125 -14.34375 28.984375 -16.128906 28.984375 -18.015625 Z M 28.984375 -28.140625 L 28.984375 -31.546875 C 28.984375 -38.304688 26.101562 -41.6875 20.34375 -41.6875 C 19.40625 -41.6875 18.601562 -41.601562 17.9375 -41.4375 C 17.269531 -41.269531 16.710938 -40.988281 16.265625 -40.59375 C 15.828125 -40.207031 15.425781 -39.65625 15.0625 -38.9375 C 14.707031 -38.21875 14.363281 -37.332031 14.03125 -36.28125 C 13.425781 -34.675781 12.832031 -33.609375 12.25 -33.078125 C 11.664062 -32.554688 10.820312 -32.296875 9.71875 -32.296875 C 6.945312 -32.296875 5.5625 -33.679688 5.5625 -36.453125 C 5.5625 -39.109375 6.972656 -41.171875 9.796875 -42.640625 C 12.617188 -44.109375 16.632812 -44.84375 21.84375 -44.84375 C 27.375 -44.84375 31.300781 -43.859375 33.625 -41.890625 C 35.945312 -39.921875 37.109375 -36.585938 37.109375 -31.890625 L 37.109375 -13.28125 C 37.109375 -6.96875 38.351562 -3.8125 40.84375 -3.8125 C 41.625 -3.8125 42.375 -3.910156 43.09375 -4.109375 C 43.8125 -4.304688 44.421875 -4.816406 44.921875 -5.640625 L 46.078125 -3.65625 C 45.410156 -2.382812 44.191406 -1.316406 42.421875 -0.453125 C 40.648438 0.398438 38.796875 0.828125 36.859375 0.828125 C 34.429688 0.828125 32.617188 0.0546875 31.421875 -1.484375 C 30.234375 -3.035156 29.640625 -5.222656 29.640625 -8.046875 L 29.234375 -8.046875 C 27.785156 -5.335938 25.785156 -3.191406 23.234375 -1.609375 C 20.691406 -0.0351562 17.875 0.75 14.78125 0.75 C 11.289062 0.75 8.550781 -0.132812 6.5625 -1.90625 C 4.570312 -3.675781 3.578125 -6.054688 3.578125 -9.046875 C 3.578125 -10.378906 3.8125 -11.65625 4.28125 -12.875 C 4.75 -14.09375 5.507812 -15.253906 6.5625 -16.359375 C 7.613281 -17.460938 8.992188 -18.550781 10.703125 -19.625 C 12.421875 -20.707031 14.523438 -21.804688 17.015625 -22.921875 Z M 28.984375 -28.140625 "/></g></g></g><g fill="rgb(13.328552%, 20.779419%, 35.688782%)" fill-opacity="1"><g transform="translate(285.709976, 99.724223)"><g><path d="M 17.9375 -13.03125 C 17.9375 -10.757812 17.988281 -8.972656 18.09375 -7.671875 C 18.207031 -6.378906 18.5 -5.382812 18.96875 -4.6875 C 19.4375 -4 20.128906 -3.539062 21.046875 -3.3125 C 21.960938 -3.09375 23.222656 -2.929688 24.828125 -2.828125 L 24.828125 0 L 3.078125 0 L 3.078125 -2.828125 C 4.617188 -2.929688 5.847656 -3.09375 6.765625 -3.3125 C 7.679688 -3.539062 8.382812 -3.984375 8.875 -4.640625 C 9.375 -5.304688 9.691406 -6.25 9.828125 -7.46875 C 9.972656 -8.6875 10.046875 -10.347656 10.046875 -12.453125 L 10.046875 -23.5 C 10.046875 -30.082031 9.878906 -34.09375 9.546875 -35.53125 C 9.378906 -36.25 9.171875 -36.84375 8.921875 -37.3125 C 8.671875 -37.789062 8.296875 -38.15625 7.796875 -38.40625 C 7.304688 -38.65625 6.671875 -38.820312 5.890625 -38.90625 C 5.117188 -38.988281 4.125 -39.03125 2.90625 -39.03125 L 2.90625 -41.6875 L 16.1875 -44.84375 L 17.1875 -36.609375 L 17.515625 -36.609375 C 19.617188 -39.210938 22.082031 -41.234375 24.90625 -42.671875 C 27.726562 -44.117188 30.800781 -44.84375 34.125 -44.84375 C 36.664062 -44.84375 38.988281 -44.425781 41.09375 -43.59375 C 43.195312 -42.757812 44.804688 -41.625 45.921875 -40.1875 C 46.859375 -38.914062 47.519531 -37.269531 47.90625 -35.25 C 48.289062 -33.226562 48.484375 -30.445312 48.484375 -26.90625 L 48.484375 -13.03125 C 48.484375 -10.757812 48.550781 -8.972656 48.6875 -7.671875 C 48.832031 -6.378906 49.125 -5.382812 49.5625 -4.6875 C 50.007812 -4 50.6875 -3.539062 51.59375 -3.3125 C 52.507812 -3.09375 53.71875 -2.929688 55.21875 -2.828125 L 55.21875 0 L 33.703125 0 L 33.703125 -2.828125 C 35.253906 -2.878906 36.488281 -3.03125 37.40625 -3.28125 C 38.320312 -3.53125 39.015625 -3.984375 39.484375 -4.640625 C 39.953125 -5.304688 40.253906 -6.257812 40.390625 -7.5 C 40.535156 -8.75 40.609375 -10.398438 40.609375 -12.453125 L 40.609375 -23.421875 C 40.609375 -26.566406 40.441406 -29.21875 40.109375 -31.375 C 39.773438 -33.539062 39.234375 -35.285156 38.484375 -36.609375 C 37.734375 -37.941406 36.75 -38.898438 35.53125 -39.484375 C 34.3125 -40.066406 32.847656 -40.359375 31.140625 -40.359375 C 28.648438 -40.359375 26.363281 -39.707031 24.28125 -38.40625 C 22.207031 -37.101562 20.585938 -35.316406 19.421875 -33.046875 C 19.148438 -32.492188 18.914062 -31.96875 18.71875 -31.46875 C 18.53125 -30.96875 18.378906 -30.382812 18.265625 -29.71875 C 18.148438 -29.0625 18.066406 -28.300781 18.015625 -27.4375 C 17.960938 -26.582031 17.9375 -25.488281 17.9375 -24.15625 Z M 17.9375 -13.03125 "/></g></g></g><g fill="rgb(13.328552%, 20.779419%, 35.688782%)" fill-opacity="1"><g transform="translate(344.493604, 99.724223)"><g><path d="M 5.5625 -4.5625 C 5.5625 -6.113281 6.085938 -7.414062 7.140625 -8.46875 C 8.191406 -9.519531 9.460938 -10.046875 10.953125 -10.046875 C 12.503906 -10.046875 13.804688 -9.519531 14.859375 -8.46875 C 15.910156 -7.414062 16.4375 -6.113281 16.4375 -4.5625 C 16.4375 -3.070312 15.910156 -1.800781 14.859375 -0.75 C 13.804688 0.300781 12.503906 0.828125 10.953125 0.828125 C 9.460938 0.828125 8.191406 0.300781 7.140625 -0.75 C 6.085938 -1.800781 5.5625 -3.070312 5.5625 -4.5625 Z M 5.5625 -4.5625 "/></g></g></g><g fill="rgb(13.328552%, 20.779419%, 35.688782%)" fill-opacity="1"><g transform="translate(368.073604, 99.724223)"><g><path d="M 3.328125 -38.78125 L 3.328125 -41.84375 C 6.253906 -43.5625 8.546875 -45.273438 10.203125 -46.984375 C 11.867188 -48.703125 13.144531 -50.753906 14.03125 -53.140625 L 16.4375 -53.140625 L 16.4375 -42.671875 L 27.5625 -42.671875 L 27.5625 -38.78125 L 16.4375 -38.78125 L 16.4375 -13.53125 C 16.4375 -11.59375 16.53125 -9.957031 16.71875 -8.625 C 16.914062 -7.300781 17.234375 -6.238281 17.671875 -5.4375 C 18.117188 -4.632812 18.703125 -4.066406 19.421875 -3.734375 C 20.148438 -3.398438 21.066406 -3.234375 22.171875 -3.234375 C 23.554688 -3.234375 24.734375 -3.523438 25.703125 -4.109375 C 26.671875 -4.691406 27.625 -5.675781 28.5625 -7.0625 L 30.640625 -5.484375 C 29.859375 -3.429688 28.515625 -1.863281 26.609375 -0.78125 C 24.703125 0.289062 22.335938 0.828125 19.515625 0.828125 C 15.859375 0.828125 13.070312 -0.0390625 11.15625 -1.78125 C 9.25 -3.53125 8.296875 -6.035156 8.296875 -9.296875 L 8.296875 -38.78125 Z M 3.328125 -38.78125 "/></g></g></g><g fill="rgb(13.328552%, 20.779419%, 35.688782%)" fill-opacity="1"><g transform="translate(401.035722, 99.724223)"><g><path d="M 17.9375 -13.03125 C 17.9375 -10.757812 17.988281 -8.972656 18.09375 -7.671875 C 18.207031 -6.378906 18.5 -5.382812 18.96875 -4.6875 C 19.4375 -4 20.128906 -3.539062 21.046875 -3.3125 C 21.960938 -3.09375 23.222656 -2.929688 24.828125 -2.828125 L 24.828125 0 L 3.078125 0 L 3.078125 -2.828125 C 4.617188 -2.929688 5.847656 -3.09375 6.765625 -3.3125 C 7.679688 -3.539062 8.382812 -3.984375 8.875 -4.640625 C 9.375 -5.304688 9.691406 -6.25 9.828125 -7.46875 C 9.972656 -8.6875 10.046875 -10.347656 10.046875 -12.453125 L 10.046875 -23.5 C 10.046875 -30.082031 9.878906 -34.09375 9.546875 -35.53125 C 9.378906 -36.25 9.171875 -36.84375 8.921875 -37.3125 C 8.671875 -37.789062 8.296875 -38.15625 7.796875 -38.40625 C 7.304688 -38.65625 6.671875 -38.820312 5.890625 -38.90625 C 5.117188 -38.988281 4.125 -39.03125 2.90625 -39.03125 L 2.90625 -41.6875 L 16.1875 -44.84375 L 17.1875 -36.609375 L 17.515625 -36.609375 C 19.617188 -39.210938 22.082031 -41.234375 24.90625 -42.671875 C 27.726562 -44.117188 30.800781 -44.84375 34.125 -44.84375 C 36.664062 -44.84375 38.988281 -44.425781 41.09375 -43.59375 C 43.195312 -42.757812 44.804688 -41.625 45.921875 -40.1875 C 46.859375 -38.914062 47.519531 -37.269531 47.90625 -35.25 C 48.289062 -33.226562 48.484375 -30.445312 48.484375 -26.90625 L 48.484375 -13.03125 C 48.484375 -10.757812 48.550781 -8.972656 48.6875 -7.671875 C 48.832031 -6.378906 49.125 -5.382812 49.5625 -4.6875 C 50.007812 -4 50.6875 -3.539062 51.59375 -3.3125 C 52.507812 -3.09375 53.71875 -2.929688 55.21875 -2.828125 L 55.21875 0 L 33.703125 0 L 33.703125 -2.828125 C 35.253906 -2.878906 36.488281 -3.03125 37.40625 -3.28125 C 38.320312 -3.53125 39.015625 -3.984375 39.484375 -4.640625 C 39.953125 -5.304688 40.253906 -6.257812 40.390625 -7.5 C 40.535156 -8.75 40.609375 -10.398438 40.609375 -12.453125 L 40.609375 -23.421875 C 40.609375 -26.566406 40.441406 -29.21875 40.109375 -31.375 C 39.773438 -33.539062 39.234375 -35.285156 38.484375 -36.609375 C 37.734375 -37.941406 36.75 -38.898438 35.53125 -39.484375 C 34.3125 -40.066406 32.847656 -40.359375 31.140625 -40.359375 C 28.648438 -40.359375 26.363281 -39.707031 24.28125 -38.40625 C 22.207031 -37.101562 20.585938 -35.316406 19.421875 -33.046875 C 19.148438 -32.492188 18.914062 -31.96875 18.71875 -31.46875 C 18.53125 -30.96875 18.378906 -30.382812 18.265625 -29.71875 C 18.148438 -29.0625 18.066406 -28.300781 18.015625 -27.4375 C 17.960938 -26.582031 17.9375 -25.488281 17.9375 -24.15625 Z M 17.9375 -13.03125 "/></g></g></g></svg>